<svg xmlns="http://www.w3.org/2000/svg" viewBox="0 0 64 64"><defs><style>.cls-1{fill:#932f6d;}.cls-2{fill:#fff;}</style></defs><title>btn_2</title><g id="Layer_2" data-name="Layer 2"><g id="Layer_1-2" data-name="Layer 1"><g id="btn_2"><circle class="cls-1" cx="32" cy="32" r="32"/><circle class="cls-2" cx="36.5" cy="32" r="21"/><path class="cls-1" d="M32.3,37,39,30.65a4.38,4.38,0,0,0,.9-1.13,2.24,2.24,0,0,0,.32-1.1v0a1.42,1.42,0,0,0-.66-1.26,3.4,3.4,0,0,0-1.9-.45,3.3,3.3,0,0,0-1.89.5,2.06,2.06,0,0,0-.88,1.39H32.08a4.22,4.22,0,0,1,1-2,4.61,4.61,0,0,1,1.88-1.27,7.49,7.49,0,0,1,2.66-.44,9.13,9.13,0,0,1,2.9.41,3.9,3.9,0,0,1,1.84,1.22A3,3,0,0,1,43,28.42h0a3.23,3.23,0,0,1-.42,1.51,6.39,6.39,0,0,1-1.17,1.52l-5.52,5.38,7.2,0v1.83H32.3Z"/></g></g></g></svg>