<svg xmlns="http://www.w3.org/2000/svg" viewBox="0 0 40 40"><defs><style>.cls-1{fill:#932f6d;}.cls-2{fill:#fff;}</style></defs><title>btn_6</title><g id="Layer_2" data-name="Layer 2"><g id="Layer_1-2" data-name="Layer 1"><g id="btn_6"><circle class="cls-1" cx="20" cy="20" r="20"/><circle class="cls-2" cx="26" cy="20" r="13"/><path class="cls-1" d="M23.63,26.09a3.81,3.81,0,0,1-1.81-1.4,3.87,3.87,0,0,1-.62-2.23h0a5.41,5.41,0,0,1,.25-1.59,8,8,0,0,1,.72-1.65l.17-.27.19-.27,4.15-5.88h2.88L24.69,19.6v-.34a2.06,2.06,0,0,1,1-.69,4.34,4.34,0,0,1,1.47-.25,6.16,6.16,0,0,1,2.54.48,3.47,3.47,0,0,1,1.6,1.39,4.15,4.15,0,0,1,.55,2.2h0a3.94,3.94,0,0,1-.63,2.25,3.83,3.83,0,0,1-1.82,1.43,7.53,7.53,0,0,1-2.87.49A7.46,7.46,0,0,1,23.63,26.09Zm4.83-1.92a2,2,0,0,0,.69-1.61h0a2.19,2.19,0,0,0-.72-1.76,3,3,0,0,0-2.05-.62,2.54,2.54,0,0,0-1.85.63,2.33,2.33,0,0,0-.66,1.77h0a2,2,0,0,0,.68,1.6,3,3,0,0,0,1.95.55A3.07,3.07,0,0,0,28.46,24.17Z"/></g></g></g></svg>