<svg xmlns="http://www.w3.org/2000/svg" viewBox="0 0 58 58"><defs><style>.cls-1{fill:#932f6d;}.cls-2{fill:#fff;}</style></defs><title>btn_3</title><g id="Layer_2" data-name="Layer 2"><g id="Layer_1-2" data-name="Layer 1"><g id="btn_3"><circle class="cls-1" cx="29" cy="29" r="29"/><circle class="cls-2" cx="34" cy="30" r="19"/><path class="cls-1" d="M31.19,36.38a4.67,4.67,0,0,1-2-1.21,3.66,3.66,0,0,1-.93-1.91H31a1.79,1.79,0,0,0,.51,1,2.4,2.4,0,0,0,1,.55A4.94,4.94,0,0,0,34,35a3.58,3.58,0,0,0,2.06-.51A1.61,1.61,0,0,0,36.8,33V32.6A1.87,1.87,0,0,0,36.11,31a3,3,0,0,0-2-.55H32.8V28.65h1.35a2.74,2.74,0,0,0,1.73-.48,1.62,1.62,0,0,0,.62-1.35v-.43a1.41,1.41,0,0,0-.64-1.24A3.23,3.23,0,0,0,34,24.71a3.82,3.82,0,0,0-1.22.18,2.25,2.25,0,0,0-1.46,1.52H28.63a4.3,4.3,0,0,1,1-1.92,4.59,4.59,0,0,1,1.85-1.21A7.18,7.18,0,0,1,34,22.87a6.75,6.75,0,0,1,3.81.92,3,3,0,0,1,1.34,2.62v.22a2.45,2.45,0,0,1-.77,1.79,4.63,4.63,0,0,1-2.19,1.11,4.2,4.2,0,0,1,2.41,1.09,3,3,0,0,1,.86,2.18V33a3.32,3.32,0,0,1-.65,2A4,4,0,0,1,37,36.35a8.82,8.82,0,0,1-3,.44A8.68,8.68,0,0,1,31.19,36.38Z"/></g></g></g></svg>