<svg xmlns="http://www.w3.org/2000/svg" viewBox="0 0 46 46"><defs><style>.cls-1{fill:#932f6d;}.cls-2{fill:#fff;}</style></defs><title>btn_5</title><g id="Layer_2" data-name="Layer 2"><g id="Layer_1-2" data-name="Layer 1"><g id="btn_5"><circle class="cls-1" cx="23" cy="23" r="23"/><circle class="cls-2" cx="29" cy="23" r="15"/><path class="cls-1" d="M28.84,29.39A4.34,4.34,0,0,1,27,28.22a4,4,0,0,1-.93-1.84h2.67a1.72,1.72,0,0,0,.84,1.17,3.43,3.43,0,0,0,1.8.41,2.93,2.93,0,0,0,2-.61,2.18,2.18,0,0,0,.7-1.74V24.46a2.15,2.15,0,0,0-.69-1.72,2.91,2.91,0,0,0-2-.61,3.25,3.25,0,0,0-1.34.28A3.44,3.44,0,0,0,29,23.2H26.52V16l9.7,0v1.82h-7V20.9a4.61,4.61,0,0,1,1.11-.45,4.84,4.84,0,0,1,1.26-.16,7.42,7.42,0,0,1,2.82.48,3.77,3.77,0,0,1,1.78,1.43,4,4,0,0,1,.61,2.26V25.6a3.76,3.76,0,0,1-2.46,3.7,7.65,7.65,0,0,1-2.9.49A7.52,7.52,0,0,1,28.84,29.39Z"/></g></g></g></svg>