<svg id="Layer_1" data-name="Layer 1" xmlns="http://www.w3.org/2000/svg" viewBox="0 0 1708 945"><defs><style>.cls-1{fill:#d90368;}.cls-2{fill:#2e294e;}.cls-3{fill:#820263;}</style></defs><title>demo</title><g id="c-12"><circle class="cls-1" cx="211.5" cy="277.5" r="211"/><path d="M338.5,184a209.84,209.84,0,1,1-81.94,16.54A209.34,209.34,0,0,1,338.5,184m0-1C221.69,183,127,277.69,127,394.5S221.69,606,338.5,606,550,511.31,550,394.5,455.31,183,338.5,183Z" transform="translate(-127 -117)"/></g><g id="c-11"><path class="cls-2" d="M995,775.5a255.49,255.49,0,1,1,180.67-74.83A253.86,253.86,0,0,1,995,775.5Z" transform="translate(-127 -117)"/><path d="M995,265a254.18,254.18,0,1,1-99.26,20A253.35,253.35,0,0,1,995,265m0-1c-141.38,0-256,114.62-256,256S853.62,776,995,776s256-114.62,256-256S1136.38,264,995,264Z" transform="translate(-127 -117)"/></g><g id="c-10"><circle class="cls-3" cx="1539" cy="406" r="168.5"/><path d="M1666,355a168,168,0,1,1-118.79,49.21A166.9,166.9,0,0,1,1666,355m0-1a169,169,0,1,0,169,169,169,169,0,0,0-169-169Z" transform="translate(-127 -117)"/></g><g id="c-8"><circle class="cls-3" cx="186" cy="776" r="87.5"/><path d="M313,806a87,87,0,1,1-87,87,87.1,87.1,0,0,1,87-87m0-1a88,88,0,1,0,88,88,88,88,0,0,0-88-88Z" transform="translate(-127 -117)"/></g><g id="c-6"><circle class="cls-1" cx="1299.5" cy="115.5" r="115"/><path d="M1426.5,118a114.51,114.51,0,1,1-81,33.54,113.73,113.73,0,0,1,81-33.54m0-1A115.5,115.5,0,1,0,1542,232.5,115.5,115.5,0,0,0,1426.5,117Z" transform="translate(-127 -117)"/></g><g id="c-7"><circle class="cls-2" cx="1285.5" cy="843.5" r="101"/><path d="M1412.5,860A100.5,100.5,0,1,1,1312,960.5,100.61,100.61,0,0,1,1412.5,860m0-1A101.5,101.5,0,1,0,1514,960.5,101.5,101.5,0,0,0,1412.5,859Z" transform="translate(-127 -117)"/></g><g id="c-5"><circle class="cls-1" cx="584.5" cy="764.5" r="161"/><path d="M711.5,721A160.5,160.5,0,1,1,598,768,159.42,159.42,0,0,1,711.5,721m0-1A161.5,161.5,0,1,0,873,881.5,161.51,161.51,0,0,0,711.5,720Z" transform="translate(-127 -117)"/></g><g id="c-4"><circle class="cls-3" cx="552.5" cy="87.5" r="28"/><path d="M679.5,177A27.5,27.5,0,1,1,652,204.5,27.54,27.54,0,0,1,679.5,177m0-1A28.5,28.5,0,1,0,708,204.5,28.5,28.5,0,0,0,679.5,176Z" transform="translate(-127 -117)"/></g><g id="c-3"><circle class="cls-2" cx="475.5" cy="463.5" r="40"/><path d="M602.5,541A39.5,39.5,0,1,1,563,580.5,39.55,39.55,0,0,1,602.5,541m0-1A40.5,40.5,0,1,0,643,580.5,40.5,40.5,0,0,0,602.5,540Z" transform="translate(-127 -117)"/></g><g id="c-2"><circle class="cls-3" cx="992" cy="851" r="86.5"/><path d="M1119,882a86,86,0,1,1-86,86,86.1,86.1,0,0,1,86-86m0-1a87,87,0,1,0,87,87,87,87,0,0,0-87-87Z" transform="translate(-127 -117)"/></g><g id="c-1"><circle class="cls-3" cx="1224" cy="546" r="28.5"/><path d="M1351,635a28,28,0,1,1-28,28,28,28,0,0,1,28-28m0-1a29,29,0,1,0,29,29,29,29,0,0,0-29-29Z" transform="translate(-127 -117)"/></g></svg>