<svg id="Layer_1" data-name="Layer 1" xmlns="http://www.w3.org/2000/svg" viewBox="0 0 6822 428.78"><defs><style>.cls-1{fill:#00eb0c;stroke:#0da1ff;}.cls-1,.cls-2{stroke-miterlimit:10;}.cls-2{fill:#0da1ff;stroke:#fff;}</style></defs><title>fluid</title><g id="Green"><path class="cls-1" d="M1,402.5s273.42-139,665.16,0,700.34,0,700.34,0v366H.5Z" transform="translate(2733 -340.22)"/><path class="cls-1" d="M-1366,402.5s273.42-139,665.16,0,700.34,0,700.34,0v366h-1366Z" transform="translate(2733 -340.22)"/><path class="cls-1" d="M-2732,402.5s273.42-139,665.16,0,700.34,0,700.34,0v366h-1366Z" transform="translate(2733 -340.22)"/></g><g id="Blue"><path class="cls-2" d="M1366,402.5s-273.42-139-665.16,0S.5,402.5.5,402.5v366h1366Z" transform="translate(2733 -340.22)"/><path class="cls-2" d="M2722,402.5s-273.42-139-665.16,0-700.34,0-700.34,0v366h1366Z" transform="translate(2733 -340.22)"/><path class="cls-2" d="M4088,402.5s-273.42-139-665.16,0-700.34,0-700.34,0v366h1366Z" transform="translate(2733 -340.22)"/></g></svg>