<svg xmlns="http://www.w3.org/2000/svg" viewBox="0 0 30 20">
    <defs>
        <style>.cls-1{fill:#420039;}</style>
    </defs>
    <title>Asset 3</title>
    <g id="Layer_2" data-name="Layer 2">
        <g id="Layer_1-2" data-name="Layer 1">
            <path id="line_1" class="cls-1" d="M29.1,3H.9C.4,3,0,2.31,0,1.49H0C0,.67.4,0,.9,0H29.1c.5,0,.9.67.9,1.49h0C30,2.31,29.6,3,29.1,3Z"/>
            <path id="line_2" class="cls-1" d="M29.1,11.49H.9c-.5,0-.9-.67-.9-1.49H0c0-.82.4-1.49.9-1.49H29.1c.5,0,.9.67.9,1.49h0C30,10.82,29.6,11.49,29.1,11.49Z"/>
            <path id="line_3" class="cls-1" d="M29.1,20H.9c-.5,0-.9-.67-.9-1.49H0C0,17.69.4,17,.9,17H29.1c.5,0,.9.67.9,1.49h0C30,19.33,29.6,20,29.1,20Z"/>
        </g>
    </g>
</svg>